<?xml version="1.0" encoding="UTF-8"?>
<svg id="Layer_1" xmlns="http://www.w3.org/2000/svg" version="1.1" xmlns:xlink="http://www.w3.org/1999/xlink" viewBox="350 600 1550 320">
  <!-- Generator: Adobe Illustrator 29.7.1, SVG Export Plug-In . SVG Version: 2.1.1 Build 8)  -->
  <defs>
    <style>
      .st0 {
        fill: url(#linear-gradient2);
      }

      .st1 {
        fill: url(#linear-gradient1);
      }

      .st2 {
        fill: #000000;
      }

      .st3 {
        fill: url(#linear-gradient);
      }
    </style>
    <linearGradient id="linear-gradient" x1="712.6" y1="573.4" x2="378.1" y2="848.4" gradientUnits="userSpaceOnUse">
      <stop offset="0" stop-color="#007dcf"/>
      <stop offset="1" stop-color="#007dcf"/>
    </linearGradient>
    <linearGradient id="linear-gradient1" x1="749.9" y1="618.8" x2="415.4" y2="893.8" xlink:href="#linear-gradient"/>
    <linearGradient id="linear-gradient2" x1="808.2" y1="689.7" x2="473.6" y2="964.7" xlink:href="#linear-gradient"/>
  </defs>
  <g>
    <path class="st2" d="M807.7,671.8h113.2v29.3h-77.7v40h71.9v29.3h-71.9v40.1h78v29.3h-113.6v-168Z"/>
    <path class="st2" d="M943.9,776.9c0-43.3,23.4-64.8,51-64.8s31.2,12.6,35.9,22.8h1.1v-63.2h34.9v168h-34.5v-20.2h-1.5c-4.8,10.5-15.4,22.2-35.8,22.2s-51.1-22.7-51.1-64.9ZM1032.6,776.8c0-22.5-9.5-36.8-26.5-36.8s-26.5,15-26.5,36.8,9.4,37.2,26.5,37.2,26.5-14.8,26.5-37.2Z"/>
    <path class="st2" d="M1094.6,854.6l32.3-4.3c2.9,6.8,10.7,13.5,26.1,13.5s26.3-6.7,26.3-23.2v-23.1h-1.5c-4.6,10.4-15.8,20.5-35.9,20.5s-51.1-19.5-51.1-61.5,23.4-64.4,51-64.4,31.3,12.6,36,22.8h1.3v-21.2h34.7v127.3c0,31.4-25.6,47.8-61.6,47.8s-53.4-15.3-57.6-34.3ZM1179.4,776.4c0-22.1-9.5-36.4-26.5-36.4s-26.5,15-26.5,36.4,9.4,35.4,26.5,35.4,26.5-13.1,26.5-35.4Z"/>
    <path class="st2" d="M1236.6,777.3c0-38.9,24-65.2,61.1-65.2s59.2,21.2,59.2,64v9.6h-85.8c0,18.9,11.1,30.4,28.6,30.4s20.7-5,24.2-14.6l32.3,2.1c-4.9,23.4-25.9,38.6-57.1,38.6s-62.5-24.9-62.5-64.9ZM1324.1,764.1c0-15-10.6-25.8-25.8-25.8s-26.4,11.5-27.2,25.8h52.9Z"/>
    <g>
      <polygon class="st2" points="1385.5 840.5 1407.2 840.5 1407.2 765.3 1480.1 765.3 1480.1 745.9 1407.2 745.9 1407.2 690.5 1487.6 690.5 1487.6 671.1 1385.5 671.1 1385.5 840.5"/>
      <rect class="st2" x="1518.5" y="671.1" width="20.7" height="169.4"/>
      <path class="st2" d="M1625.1,711.4c-34.6,0-57.8,26.5-57.8,66s23.2,65.7,57.8,65.7,57.8-26.4,57.8-65.7-23.2-66-57.8-66ZM1625.1,824.3c-27.3,0-37.1-24.2-37.1-46.9s9.7-47.2,37.1-47.2,37.1,25.4,37.1,47.2-9.7,46.9-37.1,46.9Z"/>
      <polygon class="st2" points="1848.8 713.1 1821.6 809.2 1821.3 809.2 1794.7 713.1 1773 713.1 1746.1 809.6 1745.8 809.6 1718.5 713.1 1696.8 713.1 1735.6 840.5 1755.6 840.5 1783.2 743.6 1784.1 743.6 1811.7 840.5 1831.8 840.5 1870.6 713.1 1848.8 713.1"/>
    </g>
  </g>
  <g>
    <path class="st3" d="M533,617.2c-19.4,0-36.5,12.9-41.9,31.5l-2.1,7.3-9.6,33.2h218.8c16.7,0,31.7-9.5,39-24.1,1.2-2.3,2.2-4.8,2.9-7.5l11.7-40.5h-218.7Z"/>
    <path class="st1" d="M504.1,717c-19.3,0-36.2,12.6-41.8,31l-11.9,41-28.9,99.8h75l17.5-60.2h0c6.8-23.5,28.3-39.6,52.8-39.6h102.5c16.7,0,31.7-9.5,39-24.1,1.2-2.4,2.2-4.9,3-7.5l11.7-40.5h-218.7Z"/>
    <path class="st0" d="M549.1,828.7c-5.6,5.2-9.8,12-12,19.7l-2.1,7.3-9.6,33.2h115.1c16.7,0,31.7-9.5,39-24.1,1.2-2.3,2.2-4.8,2.9-7.4l11.7-40.5h-115c-11.4,0-22,4.4-29.9,11.9Z"/>
  </g>
</svg>